<?xml version="1.0" encoding="UTF-8"?>
<!--Generator: Apple Native CoreSVG 341-->
<!DOCTYPE svg
PUBLIC "-//W3C//DTD SVG 1.1//EN"
       "http://www.w3.org/Graphics/SVG/1.1/DTD/svg11.dtd">
<svg version="1.1" xmlns="http://www.w3.org/2000/svg" xmlns:xlink="http://www.w3.org/1999/xlink" viewBox="0 0 22.8809 21.9019">
 <g>
  <rect height="21.9019" opacity="0" width="22.8809" x="0" y="0"/>
  <path d="M11.8116 14.1873L10.8496 17.5183C10.7227 17.9871 10.3516 18.3191 9.80469 18.1628C9.29688 18.0066 9.12109 17.5476 9.26758 17.0496L10.4764 12.8528ZM4.08982 6.46968L2.70508 12.8503L5.71289 12.8503L4.37207 6.75178L6.48874 8.86731L8.42773 17.1179C8.44727 17.1961 8.45703 17.2937 8.45703 17.3718C8.45703 17.8503 8.08594 18.1921 7.60742 18.1921C7.12891 18.1921 6.82617 17.9382 6.72852 17.4597L6.03516 14.3445L2.39258 14.3445L1.71875 17.45C1.61133 17.9285 1.31836 18.1921 0.830078 18.1921C0.351562 18.1921 0 17.8992 0 17.3816C0 17.2546 0.0390625 17.0691 0.0683594 16.9421L2.82217 5.20271ZM22.5195 14.2175C22.5195 14.4421 22.4609 14.7449 22.4023 14.9597C22.1349 16.1352 21.5942 17.168 20.7409 17.7612L19.6017 16.622C20.5204 16.2697 20.847 15.1318 21.0254 14.0613C21.0938 13.7 21.3965 13.4558 21.7676 13.4558C22.3047 13.4558 22.5195 13.8367 22.5195 14.2175ZM22.4316 7.15699C22.4805 7.3523 22.5195 7.57691 22.5195 7.79175C22.5195 8.29957 22.1973 8.573 21.7969 8.573C21.3574 8.573 21.1133 8.29957 21.0059 7.85035C20.7715 6.59058 20.2246 5.23316 18.9453 5.23316C17.0508 5.23316 16.6113 8.49488 16.6113 10.9168C16.6113 11.7678 16.6765 12.8796 16.8827 13.903L14.9547 11.975C14.9314 11.618 14.9219 11.2637 14.9219 10.9168C14.9219 7.6648 15.8203 3.67066 18.9453 3.67066C20.957 3.67066 22.0508 5.30152 22.4316 7.15699ZM13.9746 3.74879C14.5117 3.92457 14.6484 4.38355 14.502 4.87183L13.0117 10.032L11.6741 8.6944L12.9102 4.40308C13.0664 3.87574 13.457 3.61207 13.9746 3.74879Z" fill="black" fill-opacity="0.85"/>
  <path d="M19.7754 20.5359C20.0684 20.8386 20.5566 20.8386 20.8398 20.5359C21.1328 20.2429 21.1328 19.7742 20.8398 19.4714L2.74414 1.37574C2.45117 1.09254 1.97266 1.08277 1.66992 1.37574C1.38672 1.66871 1.37695 2.14722 1.66992 2.44019Z" fill="black" fill-opacity="0.85"/>
 </g>
</svg>
