<?xml version="1.0" encoding="UTF-8"?>
<!--Generator: Apple Native CoreSVG 341-->
<!DOCTYPE svg
PUBLIC "-//W3C//DTD SVG 1.1//EN"
       "http://www.w3.org/Graphics/SVG/1.1/DTD/svg11.dtd">
<svg version="1.1" xmlns="http://www.w3.org/2000/svg" xmlns:xlink="http://www.w3.org/1999/xlink" viewBox="0 0 24.1921 19.9316">
 <g>
  <rect height="19.9316" opacity="0" width="24.1921" x="0" y="0"/>
  <path d="M23.1361 8.33984L18.6537 8.33984C17.9603 8.33984 17.7845 8.80859 18.1556 9.3457L20.3431 12.4609C20.6556 12.9102 21.1244 12.9199 21.4466 12.4609L23.6341 9.35547C24.015 8.80859 23.8294 8.33984 23.1361 8.33984ZM11.9154 1.66016C16.5052 1.66016 20.2162 5.37109 20.2162 9.96094C20.2162 10.4102 20.5873 10.7812 21.056 10.7812C21.5052 10.7812 21.8666 10.4199 21.8763 9.9707C21.8666 4.45312 17.4134 0 11.9154 0C8.98569 0 6.32944 1.26953 4.50327 3.31055C4.10288 3.75 4.2396 4.32617 4.61069 4.58008C4.92319 4.81445 5.34311 4.83398 5.75327 4.39453C7.27671 2.70508 9.47397 1.66016 11.9154 1.66016ZM0.694677 11.582L5.1771 11.582C5.87046 11.582 6.04624 11.1035 5.67515 10.5762L3.48765 7.45117C3.17515 7.01172 2.7064 7.00195 2.38413 7.45117L0.19663 10.5664C-0.184229 11.1035-0.00844799 11.582 0.694677 11.582ZM11.9154 18.2617C7.32554 18.2617 3.6146 14.5508 3.6146 9.96094C3.6146 9.51172 3.23374 9.13086 2.77476 9.13086C2.32554 9.13086 1.96421 9.50195 1.95444 9.95117C1.96421 15.4688 6.41733 19.9219 11.9154 19.9219C14.8451 19.9219 17.5013 18.6523 19.3275 16.6113C19.7279 16.1621 19.5912 15.5957 19.2201 15.332C18.9076 15.1074 18.4876 15.0879 18.0775 15.5176C16.5541 17.207 14.3568 18.2617 11.9154 18.2617Z" fill="black" fill-opacity="0.85"/>
  <path d="M8.45835 13.3887L15.3822 13.3887C16.2123 13.3887 16.6322 12.9785 16.6322 12.1484L16.6322 9.0625L7.20835 9.0625L7.20835 12.1484C7.20835 12.9785 7.62827 13.3887 8.45835 13.3887ZM8.84897 12.1484C8.6146 12.1484 8.45835 11.9922 8.45835 11.7676L8.45835 11.0156C8.45835 10.791 8.6146 10.6348 8.84897 10.6348L9.8353 10.6348C10.0697 10.6348 10.2259 10.791 10.2259 11.0156L10.2259 11.7676C10.2259 11.9922 10.0697 12.1484 9.8353 12.1484ZM7.20835 8.1543L16.6322 8.1543L16.6322 7.7832C16.6322 6.96289 16.2123 6.54297 15.3822 6.54297L8.45835 6.54297C7.62827 6.54297 7.20835 6.95312 7.20835 7.7832Z" fill="black" fill-opacity="0.85"/>
 </g>
</svg>
