<?xml version="1.0" encoding="UTF-8"?>
<!--Generator: Apple Native CoreSVG 341-->
<!DOCTYPE svg
PUBLIC "-//W3C//DTD SVG 1.1//EN"
       "http://www.w3.org/Graphics/SVG/1.1/DTD/svg11.dtd">
<svg version="1.1" xmlns="http://www.w3.org/2000/svg" xmlns:xlink="http://www.w3.org/1999/xlink" viewBox="0 0 18.3398 17.9785">
 <g>
  <rect height="17.9785" opacity="0" width="18.3398" x="0" y="0"/>
  <path d="M17.9785 3.02734L17.9785 14.9609C17.9785 16.9727 16.9629 17.9785 14.9121 17.9785L3.06641 17.9785C1.02539 17.9785 0 16.9727 0 14.9609L0 3.02734C0 1.01562 1.02539 0 3.06641 0L14.9121 0C16.9629 0 17.9785 1.01562 17.9785 3.02734ZM2.86133 3.59375C2.66602 3.78906 2.66602 4.14062 2.86133 4.31641L13.584 15.0195C13.7988 15.2148 14.1211 15.2148 14.3164 15.0195C14.5215 14.8145 14.5215 14.4824 14.3164 14.2871L3.60352 3.59375C3.39844 3.39844 3.07617 3.39844 2.86133 3.59375ZM5.50781 13.8379C5.50781 14.6289 6.37695 14.9316 7.04102 14.2676L9.42383 11.8848L5.50781 7.96875ZM5.50781 4.04297L5.50781 4.47266L12.8027 11.748L13.291 11.748C14.1211 11.748 14.4336 10.8789 13.9062 10.3418L7.04102 3.48633C6.43555 2.87109 5.50781 3.17383 5.50781 4.04297Z" fill="black" fill-opacity="0.85"/>
 </g>
</svg>
