<?xml version="1.0" encoding="UTF-8"?>
<!--Generator: Apple Native CoreSVG 341-->
<!DOCTYPE svg
PUBLIC "-//W3C//DTD SVG 1.1//EN"
       "http://www.w3.org/Graphics/SVG/1.1/DTD/svg11.dtd">
<svg version="1.1" xmlns="http://www.w3.org/2000/svg" xmlns:xlink="http://www.w3.org/1999/xlink" viewBox="0 0 23.2398 20.0635">
 <g>
  <rect height="20.0635" opacity="0" width="23.2398" x="0" y="0"/>
  <path d="M10.7763 14.2536L7.39625 17.6245C6.43922 18.5816 5.16968 18.1128 5.16968 16.9605L5.16968 8.66465ZM7.40601 2.0093L17.3181 11.9312C18.1287 12.7515 17.572 13.982 16.2146 13.982L15.8754 13.982L5.16968 3.30326L5.16968 2.88821C5.16968 1.60891 6.51734 1.13039 7.40601 2.0093Z" fill="black" fill-opacity="0.85"/>
  <path d="M1.35132 3.23977L16.8591 18.6988C17.1521 19.0015 17.6404 19.0015 17.9236 18.6988C18.2068 18.4058 18.2166 17.937 17.9236 17.6343L2.42554 2.17532C2.13257 1.88235 1.65406 1.88235 1.35132 2.17532C1.06812 2.46829 1.06812 2.95657 1.35132 3.23977Z" fill="black" fill-opacity="0.85"/>
 </g>
</svg>
