<?xml version="1.0" encoding="UTF-8"?>
<!--Generator: Apple Native CoreSVG 341-->
<!DOCTYPE svg
PUBLIC "-//W3C//DTD SVG 1.1//EN"
       "http://www.w3.org/Graphics/SVG/1.1/DTD/svg11.dtd">
<svg version="1.1" xmlns="http://www.w3.org/2000/svg" xmlns:xlink="http://www.w3.org/1999/xlink" viewBox="0 0 18.3398 17.9785">
 <g>
  <rect height="17.9785" opacity="0" width="18.3398" x="0" y="0"/>
  <path d="M3.06641 17.9785L14.9121 17.9785C16.9629 17.9785 17.9785 16.9727 17.9785 14.9609L17.9785 3.02734C17.9785 1.01562 16.9629 0 14.9121 0L3.06641 0C1.02539 0 0 1.01562 0 3.02734L0 14.9609C0 16.9727 1.02539 17.9785 3.06641 17.9785ZM3.08594 16.4062C2.10938 16.4062 1.57227 15.8887 1.57227 14.873L1.57227 3.11523C1.57227 2.09961 2.10938 1.57227 3.08594 1.57227L14.8926 1.57227C15.8594 1.57227 16.4062 2.09961 16.4062 3.11523L16.4062 14.873C16.4062 15.8887 15.8594 16.4062 14.8926 16.4062Z" fill="black" fill-opacity="0.85"/>
  <path d="M13.7402 10.3027L7.08984 3.65234C6.50391 3.06641 5.60547 3.34961 5.60547 4.18945L5.60547 4.61914L12.666 11.6602L13.1543 11.6602C13.9551 11.6602 14.2578 10.8203 13.7402 10.3027ZM5.60547 7.99805L5.60547 13.6914C5.60547 14.4629 6.44531 14.7559 7.08008 14.1113L9.4043 11.7969ZM3.03711 4.46289L13.4375 14.834C13.6426 15.0293 13.9551 15.0293 14.1406 14.834C14.3359 14.6387 14.3359 14.3164 14.1406 14.1309L3.75 3.75977C3.55469 3.57422 3.24219 3.57422 3.03711 3.75977C2.85156 3.95508 2.85156 4.28711 3.03711 4.46289Z" fill="black" fill-opacity="0.85"/>
 </g>
</svg>
