<?xml version="1.0" encoding="UTF-8"?>
<!--Generator: Apple Native CoreSVG 341-->
<!DOCTYPE svg
PUBLIC "-//W3C//DTD SVG 1.1//EN"
       "http://www.w3.org/Graphics/SVG/1.1/DTD/svg11.dtd">
<svg version="1.1" xmlns="http://www.w3.org/2000/svg" xmlns:xlink="http://www.w3.org/1999/xlink" viewBox="0 0 20.2832 19.9316">
 <g>
  <rect height="19.9316" opacity="0" width="20.2832" x="0" y="0"/>
  <path d="M19.9219 9.96094C19.9219 15.4492 15.459 19.9219 9.96094 19.9219C4.47266 19.9219 0 15.4492 0 9.96094C0 4.46289 4.47266 0 9.96094 0C15.459 0 19.9219 4.46289 19.9219 9.96094ZM6.07422 10.8594L4.59961 11.2207C4.20898 11.2988 4.10156 11.7188 4.45312 11.9824L4.91211 12.3145L3.80859 13.9062C3.66211 14.1211 3.7207 14.3945 3.90625 14.5117C4.10156 14.6484 4.38477 14.5996 4.51172 14.4141L5.625 12.8223L6.09375 13.1641C6.42578 13.3984 6.82617 13.1641 6.77734 12.7539L6.63086 11.2305C6.58203 10.957 6.34766 10.791 6.07422 10.8594ZM4.96094 6.09375C4.61914 6.67969 4.66797 7.37305 5.17578 8.22266C5.81055 9.27734 6.38672 9.84375 7.57812 10.5371L13.4863 13.9453C14.0723 14.2773 14.7949 14.3945 15.4395 13.7695C15.0293 13.8184 14.7461 13.7109 14.4043 13.5156L7.93945 9.78516C6.97266 9.22852 6.54297 8.81836 6.12305 8.14453L5.36133 6.95312C5.07812 6.48438 5.00977 6.20117 5.10742 5.87891C5.06836 5.95703 5.00977 6.01562 4.96094 6.09375ZM5.87891 5.36133C5.43945 5.50781 5.39062 6.00586 5.80078 6.66016L6.5625 7.86133C6.93359 8.4375 7.28516 8.7793 8.21289 9.31641L14.6875 13.0566C15.1367 13.3301 15.4297 13.3887 15.8105 13.2715C15.8398 13.252 15.8496 13.2129 15.8691 13.1934L16.9043 11.3867C17.2559 10.7715 16.9336 10.127 16.0645 10.1074C15.6836 10.0977 15.3516 10.0488 14.9414 9.81445C14.4824 9.55078 14.1797 9.0625 14.043 8.07617C13.9355 7.26562 13.4082 6.80664 12.5781 6.81641L12.1289 6.81641L12.2559 8.11523C12.2852 8.26172 12.1875 8.38867 12.041 8.4082C11.9043 8.42773 11.7578 8.33984 11.7383 8.19336L11.5918 6.82617L11.0254 6.83594L11.1523 8.03711C11.1621 8.20312 11.0742 8.32031 10.9277 8.33984C10.7617 8.35938 10.6348 8.27148 10.625 8.125L10.498 6.83594L9.91211 6.83594L10.0293 7.96875C10.0391 8.11523 9.94141 8.24219 9.81445 8.26172C9.6582 8.29102 9.52148 8.18359 9.50195 8.03711L9.375 6.82617C9.16016 6.80664 9.04297 6.74805 8.80859 6.62109C8.45703 6.42578 7.64648 5.74219 7.24609 5.50781C6.72852 5.22461 6.24023 5.23438 5.87891 5.36133Z" fill="black" fill-opacity="0.85"/>
 </g>
</svg>
