<?xml version="1.0" encoding="UTF-8"?>
<!--Generator: Apple Native CoreSVG 341-->
<!DOCTYPE svg
PUBLIC "-//W3C//DTD SVG 1.1//EN"
       "http://www.w3.org/Graphics/SVG/1.1/DTD/svg11.dtd">
<svg version="1.1" xmlns="http://www.w3.org/2000/svg" xmlns:xlink="http://www.w3.org/1999/xlink" viewBox="0 0 20.2832 19.9316">
 <g>
  <rect height="19.9316" opacity="0" width="20.2832" x="0" y="0"/>
  <path d="M9.96094 19.9219C15.459 19.9219 19.9219 15.459 19.9219 9.96094C19.9219 4.46289 15.459 0 9.96094 0C4.46289 0 0 4.46289 0 9.96094C0 15.459 4.46289 19.9219 9.96094 19.9219ZM9.96094 18.2617C5.37109 18.2617 1.66016 14.5508 1.66016 9.96094C1.66016 5.37109 5.37109 1.66016 9.96094 1.66016C14.5508 1.66016 18.2617 5.37109 18.2617 9.96094C18.2617 14.5508 14.5508 18.2617 9.96094 18.2617Z" fill="black" fill-opacity="0.85"/>
  <path d="M14.541 12.9688C14.9805 13.2324 15.2637 13.291 15.6348 13.1738C15.6543 13.1543 15.6641 13.1152 15.6836 13.0957L16.6895 11.3477C17.041 10.752 16.7188 10.127 15.8887 10.1074C15.5078 10.0977 15.1855 10.0488 14.7852 9.82422C14.3457 9.56055 14.0527 9.0918 13.916 8.13477C13.8086 7.34375 13.3008 6.9043 12.4902 6.91406L12.0605 6.91406L12.1875 8.17383C12.207 8.31055 12.1191 8.4375 11.9727 8.45703C11.8457 8.47656 11.6992 8.38867 11.6797 8.25195L11.543 6.92383L10.9863 6.93359L11.1133 8.0957C11.123 8.26172 11.0352 8.36914 10.8984 8.38867C10.7324 8.4082 10.6152 8.32031 10.6055 8.18359L10.4785 6.93359L9.91211 6.93359L10.0293 8.02734C10.0391 8.17383 9.95117 8.29102 9.81445 8.31055C9.66797 8.33984 9.54102 8.24219 9.52148 8.0957L9.38477 6.92383C9.17969 6.9043 9.07227 6.8457 8.83789 6.71875C8.50586 6.5332 7.70508 5.86914 7.32422 5.64453C6.81641 5.36133 6.33789 5.38086 5.99609 5.49805C5.56641 5.64453 5.51758 6.12305 5.91797 6.75781L6.66992 7.92969C7.02148 8.48633 7.36328 8.81836 8.26172 9.33594ZM13.3789 13.8281C13.9453 14.1504 14.6484 14.2578 15.2734 13.6523C14.873 13.7012 14.5996 13.6035 14.2773 13.4082L7.99805 9.78516C7.06055 9.24805 6.64062 8.84766 6.23047 8.20312L5.49805 7.04102C5.21484 6.5918 5.15625 6.31836 5.24414 6.00586C5.20508 6.07422 5.15625 6.13281 5.10742 6.21094C4.77539 6.77734 4.82422 7.45117 5.3125 8.27148C5.92773 9.29688 6.48438 9.84375 7.64648 10.5176ZM4.60938 11.9238L5.05859 12.2461L3.98438 13.7891C3.85742 13.9941 3.90625 14.2578 4.08203 14.375C4.26758 14.502 4.54102 14.4629 4.66797 14.2773L5.75195 12.7344L6.21094 13.0664C6.52344 13.291 6.91406 13.0664 6.86523 12.666L6.71875 11.1914C6.68945 10.9277 6.44531 10.7617 6.18164 10.8301L4.75586 11.1816C4.375 11.2598 4.27734 11.6699 4.60938 11.9238Z" fill="black" fill-opacity="0.85"/>
 </g>
</svg>
