<?xml version="1.0" encoding="UTF-8"?>
<!--Generator: Apple Native CoreSVG 341-->
<!DOCTYPE svg
PUBLIC "-//W3C//DTD SVG 1.1//EN"
       "http://www.w3.org/Graphics/SVG/1.1/DTD/svg11.dtd">
<svg version="1.1" xmlns="http://www.w3.org/2000/svg" xmlns:xlink="http://www.w3.org/1999/xlink" viewBox="0 0 35.7986 25.5176">
 <g>
  <rect height="25.5176" opacity="0" width="35.7986" x="0" y="0"/>
  <path d="M29.2274 7.90039L29.2274 12.9732C28.9718 12.9368 28.7107 12.9199 28.4462 12.9199C28.1784 12.9199 27.9142 12.9373 27.6551 12.9727L27.6551 7.90039C27.6551 6.2793 26.7176 5.3418 25.0966 5.3418L10.3309 5.3418C8.70983 5.3418 7.77233 6.2793 7.77233 7.90039L7.77233 17.627C7.77233 19.248 8.70983 20.1758 10.3309 20.1758L21.1043 20.1758C21.1601 20.9217 21.6833 21.5744 22.4958 21.748L10.3212 21.748C7.69421 21.748 6.20007 20.2637 6.20007 17.627L6.20007 7.90039C6.20007 5.26367 7.69421 3.76953 10.3212 3.76953L25.3505 3.76953C27.8114 3.76953 29.2274 5.26367 29.2274 7.90039ZM16.7206 13.0957L25.204 13.0957C25.477 13.0957 25.7147 13.2724 25.8066 13.5163C25.3201 13.7443 24.8686 14.0342 24.4635 14.375L16.7234 14.375C16.4598 15.1226 15.7414 15.6641 14.9012 15.6641C14.0611 15.6641 13.3487 15.1226 13.0878 14.375L10.204 14.375C9.88171 14.375 9.58874 14.0918 9.58874 13.7402C9.58874 13.3887 9.88171 13.0957 10.204 13.0957L13.0894 13.0957C13.3502 12.3468 14.0562 11.7969 14.9012 11.7969C15.7386 11.7969 16.455 12.3468 16.7206 13.0957ZM13.954 13.7402C13.954 14.2773 14.3641 14.6875 14.9012 14.6875C15.4481 14.6875 15.8583 14.2676 15.8583 13.7402C15.8583 13.1836 15.4481 12.7832 14.9012 12.7832C14.3641 12.7832 13.954 13.1836 13.954 13.7402ZM22.3785 8.27148L25.2333 8.27148C25.5555 8.27148 25.8387 8.55469 25.8387 8.91602C25.8387 9.26758 25.5555 9.55078 25.2333 9.55078L22.3734 9.55078C22.1053 10.2966 21.3847 10.8398 20.5555 10.8398C19.711 10.8398 18.9992 10.2966 18.7355 9.55078L10.2333 9.55078C9.88171 9.55078 9.58874 9.26758 9.58874 8.91602C9.58874 8.55469 9.88171 8.27148 10.2333 8.27148L18.733 8.27148C18.9962 7.52071 19.715 6.97266 20.5555 6.97266C21.3898 6.97266 22.1141 7.51646 22.3785 8.27148ZM19.6083 8.90625C19.6083 9.44336 20.0087 9.86328 20.5555 9.86328C21.1024 9.86328 21.5126 9.44336 21.5126 8.90625C21.5126 8.36914 21.1024 7.95898 20.5555 7.95898C20.0087 7.95898 19.6083 8.35938 19.6083 8.90625Z" fill="black" fill-opacity="0.85"/>
  <path d="M28.4462 14.2578C26.9032 14.2578 25.5262 14.9805 24.6278 16.084C24.0516 16.7676 25.0087 17.5195 25.5262 16.9043C26.2098 16.0352 27.2645 15.4688 28.4462 15.4688C30.4969 15.4688 32.1962 17.168 32.1962 19.2188C32.1962 19.5605 32.4598 19.834 32.8016 19.834C33.1337 19.834 33.4071 19.5605 33.4071 19.2188C33.4071 16.5137 31.161 14.2578 28.4462 14.2578ZM30.995 18.7891L32.2743 20.3613C32.538 20.6836 32.8798 20.6934 33.1337 20.3613L34.3153 18.7891C34.6278 18.3887 34.413 17.9688 33.9051 17.9688L31.4149 17.9688C30.9071 17.9688 30.6727 18.418 30.995 18.7891ZM28.4462 24.1797C29.9794 24.1797 31.3661 23.4668 32.2645 22.3535C32.8407 21.6699 31.8739 20.918 31.3661 21.5332C30.6825 22.4023 29.6278 22.9688 28.4462 22.9688C26.3954 22.9688 24.6962 21.2695 24.6962 19.2188C24.6962 18.877 24.4325 18.6035 24.0809 18.6035C23.7489 18.6035 23.4852 18.877 23.4852 19.2188C23.4852 21.9238 25.7216 24.1797 28.4462 24.1797ZM22.9872 20.4688L25.4676 20.4688C25.9755 20.4688 26.2098 20.0195 25.8973 19.6484L24.6083 18.0762C24.3446 17.7637 24.0126 17.7539 23.7587 18.0762L22.5673 19.6484C22.2645 20.0488 22.4794 20.4688 22.9872 20.4688Z" fill="black" fill-opacity="0.85"/>
 </g>
</svg>
