<?xml version="1.0" encoding="UTF-8"?>
<!--Generator: Apple Native CoreSVG 341-->
<!DOCTYPE svg
PUBLIC "-//W3C//DTD SVG 1.1//EN"
       "http://www.w3.org/Graphics/SVG/1.1/DTD/svg11.dtd">
<svg version="1.1" xmlns="http://www.w3.org/2000/svg" xmlns:xlink="http://www.w3.org/1999/xlink" viewBox="0 0 22.8809 14.6973">
 <g>
  <rect height="14.6973" opacity="0" width="22.8809" x="0" y="0"/>
  <path d="M0.830078 14.5898C1.31836 14.5898 1.61133 14.3262 1.71875 13.8477L2.39258 10.7422L6.03516 10.7422L6.72852 13.8574C6.82617 14.3359 7.12891 14.5898 7.60742 14.5898C8.08594 14.5898 8.45703 14.248 8.45703 13.7695C8.45703 13.6914 8.44727 13.5938 8.42773 13.5156L5.55664 1.29883C5.38086 0.585938 4.96094 0.107422 4.20898 0.107422C3.44727 0.107422 3.05664 0.566406 2.89062 1.30859L0.0683594 13.3398C0.0390625 13.4668 0 13.6523 0 13.7793C0 14.2969 0.351562 14.5898 0.830078 14.5898ZM2.70508 9.24805L4.19922 2.36328L4.19922 2.36328L5.71289 9.24805ZM9.80469 14.5605C10.3516 14.7168 10.7227 14.3848 10.8496 13.916L14.502 1.26953C14.6484 0.78125 14.5117 0.322266 13.9746 0.146484C13.457 0.00976562 13.0664 0.273438 12.9102 0.800781L9.26758 13.4473C9.12109 13.9453 9.29688 14.4043 9.80469 14.5605ZM18.9746 14.6973C20.8887 14.6973 21.9824 13.2031 22.4023 11.3574C22.4609 11.1426 22.5195 10.8398 22.5195 10.6152C22.5195 10.2344 22.3047 9.85352 21.7676 9.85352C21.3965 9.85352 21.0938 10.0977 21.0254 10.459C20.8105 11.748 20.3809 13.1348 18.9648 13.1348C17.0117 13.1348 16.6113 9.42383 16.6113 7.31445C16.6113 4.89258 17.0508 1.63086 18.9453 1.63086C20.2246 1.63086 20.7715 2.98828 21.0059 4.24805C21.1133 4.69727 21.3574 4.9707 21.7969 4.9707C22.1973 4.9707 22.5195 4.69727 22.5195 4.18945C22.5195 3.97461 22.4805 3.75 22.4316 3.55469C22.0508 1.69922 20.957 0.0683594 18.9453 0.0683594C15.8203 0.0683594 14.9219 4.0625 14.9219 7.31445C14.9219 10.6641 15.8105 14.6973 18.9746 14.6973Z" fill="white" fill-opacity="0.85"/>
 </g>
</svg>
