<?xml version="1.0" encoding="UTF-8"?>
<!--Generator: Apple Native CoreSVG 341-->
<!DOCTYPE svg
PUBLIC "-//W3C//DTD SVG 1.1//EN"
       "http://www.w3.org/Graphics/SVG/1.1/DTD/svg11.dtd">
<svg version="1.1" xmlns="http://www.w3.org/2000/svg" xmlns:xlink="http://www.w3.org/1999/xlink" viewBox="0 0 18.3398 17.9785">
 <g>
  <rect height="17.9785" opacity="0" width="18.3398" x="0" y="0"/>
  <path d="M17.9785 3.02734L17.9785 14.9609C17.9785 16.9727 16.9629 17.9785 14.9121 17.9785L3.06641 17.9785C1.02539 17.9785 0 16.9727 0 14.9609L0 3.02734C0 1.01562 1.02539 0 3.06641 0L14.9121 0C16.9629 0 17.9785 1.01562 17.9785 3.02734ZM5.44922 4.31641L5.44922 14.0625C5.44922 14.8535 6.30859 15.1758 6.97266 14.5215L9.51172 11.9922L13.0859 11.9922C14.0234 11.9922 14.3945 11.1426 13.8477 10.5859L6.97266 3.7207C6.36719 3.11523 5.44922 3.4375 5.44922 4.31641Z" fill="white" fill-opacity="0.85"/>
 </g>
</svg>
