<?xml version="1.0" encoding="UTF-8"?>
<!--Generator: Apple Native CoreSVG 341-->
<!DOCTYPE svg
PUBLIC "-//W3C//DTD SVG 1.1//EN"
       "http://www.w3.org/Graphics/SVG/1.1/DTD/svg11.dtd">
<svg version="1.1" xmlns="http://www.w3.org/2000/svg" xmlns:xlink="http://www.w3.org/1999/xlink" viewBox="0 0 23.877 24.7509">
 <g>
  <rect height="24.7509" opacity="0" width="23.877" x="0" y="0"/>
  <path d="M1.11328 17.6538L1.11328 18.8354C1.11328 20.6909 2.30469 21.9213 4.11133 21.9213L4.27734 21.9213L4.27734 20.8374C4.27734 20.2221 4.77539 20.0659 5.26367 20.4272L7.48047 22.0483C7.86133 22.3315 7.85156 22.6342 7.48047 22.9077L5.26367 24.5288C4.77539 24.8999 4.27734 24.7534 4.27734 24.0991L4.27734 22.9467L4.10156 22.9467C1.63086 22.9467 0 21.3159 0 18.8452L0 17.6538C0 17.351 0.263672 17.0874 0.556641 17.0874C0.859375 17.0874 1.11328 17.351 1.11328 17.6538ZM18.252 4.29439L16.0352 2.68306C15.6543 2.39986 15.6641 2.09712 16.0352 1.82368L18.252 0.192824C18.7402-0.168504 19.2383-0.0220196 19.2383 0.632277L19.2383 1.78462L19.4141 1.78462C21.8848 1.78462 23.5156 3.41548 23.5156 5.88618L23.5156 7.07759C23.5156 7.38032 23.252 7.644 22.9688 7.644C22.666 7.644 22.4023 7.38032 22.4023 7.07759L22.4023 5.88618C22.4023 4.04048 21.2109 2.81001 19.4043 2.81001L19.2383 2.81001L19.2383 3.88423C19.2383 4.50923 18.7402 4.66548 18.252 4.29439Z" fill="white" fill-opacity="0.85"/>
  <path d="M5.48828 8.78004L5.48828 16.1303C5.48828 16.56 5.75195 16.853 6.13281 16.853L13.5749 16.853L15.0422 18.3178L5.95703 18.3178C4.82422 18.3178 4.01367 17.4487 4.01367 16.267L4.01367 8.46431C4.01367 8.11304 4.0853 7.79025 4.21718 7.51108ZM19.502 8.46431L19.502 16.267C19.502 16.6168 19.4309 16.9392 19.3 17.2188L18.0371 15.9566L18.0371 8.60103C18.0371 8.19087 17.7734 7.8979 17.3828 7.8979L9.9739 7.8979L8.49846 6.42329L17.5586 6.42329C18.6914 6.42329 19.502 7.28267 19.502 8.46431Z" fill="white" fill-opacity="0.85"/>
  <path d="M19.7656 21.4331C20.0586 21.726 20.5469 21.726 20.8301 21.4331C21.123 21.1303 21.123 20.6616 20.8301 20.3686L3.49609 3.04439C3.20312 2.75142 2.72461 2.74165 2.42188 3.04439C2.13867 3.32759 2.13867 3.82564 2.42188 4.10884Z" fill="white" fill-opacity="0.85"/>
 </g>
</svg>
