<?xml version="1.0" encoding="UTF-8"?>
<!--Generator: Apple Native CoreSVG 341-->
<!DOCTYPE svg
PUBLIC "-//W3C//DTD SVG 1.1//EN"
       "http://www.w3.org/Graphics/SVG/1.1/DTD/svg11.dtd">
<svg version="1.1" xmlns="http://www.w3.org/2000/svg" xmlns:xlink="http://www.w3.org/1999/xlink" viewBox="0 0 21.499 28.3455">
 <g>
  <rect height="28.3455" opacity="0" width="21.499" x="0" y="0"/>
  <path d="M1.71631 21.248L1.71631 22.4296C1.71631 24.2851 2.90771 25.5155 4.72412 25.5155L4.89014 25.5155L4.89014 24.4315C4.89014 23.8065 5.37842 23.6601 5.8667 24.0214L8.0835 25.6425C8.46436 25.9159 8.45459 26.2284 8.0835 26.5019L5.8667 28.123C5.37842 28.4843 4.89014 28.3476 4.89014 27.6933L4.89014 26.5409L4.71436 26.5409C2.24365 26.5409 0.603027 24.9101 0.603027 22.4394L0.603027 21.248C0.603027 20.9452 0.866699 20.6815 1.15967 20.6815C1.4624 20.6815 1.71631 20.9452 1.71631 21.248ZM15.271 4.29483L13.0542 2.6835C12.6733 2.4003 12.6831 2.09756 13.0542 1.82413L15.271 0.193266C15.7593-0.168062 16.2573-0.0215776 16.2573 0.622954L16.2573 1.7753L16.4331 1.7753C18.9038 1.7753 20.5347 3.41592 20.5347 5.88663L20.5347 7.07803C20.5347 7.38077 20.271 7.63467 19.9878 7.63467C19.6851 7.63467 19.4214 7.38077 19.4214 7.07803L19.4214 5.88663C19.4214 4.03116 18.23 2.81045 16.4233 2.81045L16.2573 2.81045L16.2573 3.88467C16.2573 4.50967 15.7593 4.65616 15.271 4.29483Z" fill="white" fill-opacity="0.85"/>
  <path d="M6.10107 11.8837L6.10107 19.7929C6.10107 20.1737 6.39404 20.4374 6.8042 20.4374L14.3335 20.4374C14.4392 20.4374 14.5366 20.4215 14.6233 20.3916L15.7513 21.5177C15.4078 21.769 14.9666 21.912 14.4702 21.912L6.66748 21.912C5.48584 21.912 4.62646 21.1015 4.62646 19.9687L4.62646 10.4116ZM16.521 8.36709L16.521 16.934L15.0562 15.47L15.0562 8.54288C15.0562 8.15225 14.7632 7.87881 14.3335 7.87881L7.46067 7.87881L6.07117 6.4901C6.25731 6.43992 6.4573 6.41397 6.66748 6.41397L14.4702 6.41397C15.6519 6.41397 16.521 7.23428 16.521 8.36709Z" fill="white" fill-opacity="0.85"/>
  <path d="M19.0796 23.2304C19.3726 23.5233 19.8511 23.5233 20.144 23.2304C20.4272 22.9276 20.437 22.4589 20.144 22.1659L2.80029 4.8417C2.51709 4.54873 2.02881 4.53897 1.72607 4.8417C1.44287 5.12491 1.44287 5.62295 1.72607 5.90616Z" fill="white" fill-opacity="0.85"/>
 </g>
</svg>
