<?xml version="1.0" encoding="UTF-8"?>
<!--Generator: Apple Native CoreSVG 341-->
<!DOCTYPE svg
PUBLIC "-//W3C//DTD SVG 1.1//EN"
       "http://www.w3.org/Graphics/SVG/1.1/DTD/svg11.dtd">
<svg version="1.1" xmlns="http://www.w3.org/2000/svg" xmlns:xlink="http://www.w3.org/1999/xlink" viewBox="0 0 30.7169 21.3788">
 <g>
  <rect height="21.3788" opacity="0" width="30.7169" x="0" y="0"/>
  <path d="M25.085 17.8232L10.3585 9.32708C8.23932 8.10637 7.42878 7.29583 6.58893 5.94817L4.87018 3.22356C3.91315 1.68059 4.0987 0.498951 5.12409 0.186451C5.93463-0.0967522 7.05768-0.116283 8.20026 0.547779C9.11823 1.07512 11.003 2.60833 11.7745 3.05754C12.3214 3.37004 12.5753 3.48723 13.0928 3.53606L13.3956 6.3095C13.4346 6.63176 13.7178 6.84661 14.0499 6.77825C14.3428 6.72942 14.5284 6.46575 14.4991 6.12395L14.2257 3.56536L15.6514 3.55559L15.9346 6.47551C15.9639 6.81731 16.2471 7.01262 16.5987 6.94426C16.8917 6.9052 17.087 6.65129 17.0479 6.29973L16.7745 3.55559L18.1807 3.54583L18.4932 6.65129C18.5323 6.96379 18.8448 7.16887 19.1378 7.12004C19.4405 7.08098 19.6358 6.76848 19.6065 6.47551L19.3135 3.53606L19.8799 3.53606C22.0479 3.53606 23.4542 4.51262 23.7667 6.83684C24.0206 8.64348 24.7139 9.75676 25.7491 10.3525C26.6573 10.87 27.3604 11.0947 28.2198 11.1728C29.8507 11.3486 30.9346 12.7548 30.0362 14.2978L27.8487 18.0966C27.8096 18.1552 27.7706 18.2236 27.7315 18.2822C26.8331 18.5849 26.1495 18.4482 25.085 17.8232ZM3.91315 3.82903L5.6319 6.53411C6.5987 8.08684 7.57526 9.02434 9.79206 10.3036L24.5186 18.8095C25.2999 19.2587 25.9639 19.4833 26.8917 19.3759C25.4268 20.831 23.7471 20.5478 22.419 19.7763L8.96198 12.0126C6.24713 10.4404 4.91901 9.13176 3.4737 6.72942C2.33112 4.81536 2.2237 3.21379 3.00495 1.86614C3.1026 1.69036 3.21979 1.53411 3.32721 1.38762C3.11237 2.12004 3.24909 2.76458 3.91315 3.82903Z" fill="white" fill-opacity="0.85"/>
  <path d="M1.58893 15.1865L5.55378 17.9599C6.14948 18.3896 6.83307 17.9501 6.74518 17.2372L6.34479 13.5947C6.27643 13.1064 5.9151 12.8525 5.43659 12.9501L1.87213 13.8193C1.18854 13.9755 0.963931 14.7665 1.58893 15.1865ZM1.39362 21.0068L5.13385 15.665C5.38776 15.3134 5.29987 14.8447 4.94831 14.6005C4.59674 14.3661 4.12799 14.4247 3.87409 14.7861L0.143619 20.1376C-0.110287 20.4892-0.012631 20.9482 0.3194 21.1923C0.670963 21.4462 1.13971 21.3681 1.39362 21.0068Z" fill="white" fill-opacity="0.85"/>
 </g>
</svg>
