<?xml version="1.0" encoding="UTF-8"?>
<!--Generator: Apple Native CoreSVG 341-->
<!DOCTYPE svg
PUBLIC "-//W3C//DTD SVG 1.1//EN"
       "http://www.w3.org/Graphics/SVG/1.1/DTD/svg11.dtd">
<svg version="1.1" xmlns="http://www.w3.org/2000/svg" xmlns:xlink="http://www.w3.org/1999/xlink" viewBox="0 0 33.8197 21.6259">
 <g>
  <rect height="21.6259" opacity="0" width="33.8197" x="0" y="0"/>
  <path d="M28.1843 17.9467L13.4577 9.45063C11.3386 8.22993 10.5182 7.41938 9.68816 6.07172L7.96941 3.34711C7.00262 1.80414 7.19793 0.622504 8.22332 0.310004C9.0241 0.0268008 10.1471 0.00726956 11.2995 0.671332C12.2175 1.19868 14.0925 2.73188 14.8737 3.1811C15.4206 3.4936 15.6745 3.61079 16.1823 3.65961L16.4948 6.43305C16.5339 6.75532 16.8073 6.97016 17.1491 6.9018C17.4421 6.85297 17.6276 6.5893 17.5886 6.2475L17.3249 3.68891L18.7409 3.67914L19.0241 6.59907C19.0632 6.94086 19.3464 7.13618 19.6882 7.06782C19.9909 7.02875 20.1862 6.77485 20.1471 6.42329L19.8639 3.67914L21.28 3.66938L21.5925 6.77485C21.6218 7.08735 21.944 7.29243 22.237 7.2436C22.5397 7.20454 22.735 6.89204 22.7057 6.59907L22.403 3.65961L22.9792 3.65961C25.1471 3.65961 26.5534 4.63618 26.8659 6.96039C27.1198 8.76704 27.8132 9.88032 28.8483 10.476C29.7565 10.9936 30.4596 11.2182 31.319 11.2963C32.9499 11.4721 34.0241 12.8784 33.1354 14.4213L30.9479 18.2202C30.9089 18.2788 30.8698 18.3471 30.8307 18.4057C29.9323 18.7084 29.2487 18.5717 28.1843 17.9467ZM7.01238 3.95258L8.72137 6.65766C9.69793 8.21039 10.6745 9.14789 12.8913 10.4272L27.6081 18.9331C28.3893 19.3823 29.0534 19.6069 29.9909 19.4995C28.5163 20.9545 26.8464 20.6713 25.5182 19.8998L12.0612 12.1362C9.34637 10.5639 8.00848 9.25532 6.57293 6.85297C5.43035 4.93891 5.32293 3.33735 6.09441 1.98969C6.20184 1.81391 6.31902 1.65766 6.42645 1.51118C6.2116 2.2436 6.33856 2.88813 7.01238 3.95258Z" fill="white" fill-opacity="0.85"/>
  <path d="M0.606134 11.0034L4.89324 11.7065C5.56707 11.8041 5.82098 11.3647 5.54754 10.769L3.91668 7.42914C3.67254 6.9311 3.21356 6.88227 2.8327 7.26313L0.274102 9.93891C-0.175116 10.3784-0.0774601 10.8959 0.606134 11.0034ZM5.10809 16.8139L0.889337 17.8393C0.195977 18.0053 0.156915 18.5131 0.615899 18.9233L3.37957 21.394C3.77996 21.7846 4.20965 21.6674 4.44402 21.1498L5.82098 17.7026C6.08465 17.0873 5.77215 16.6577 5.10809 16.8139ZM3.57488 11.2866C3.81902 10.2416 2.2077 9.85102 1.93426 11.0327C1.31902 13.7084 1.77801 16.5991 2.36395 18.6206C2.71551 19.8706 4.31707 19.392 3.98504 18.2495C3.40887 16.2768 2.99871 13.6596 3.57488 11.2866Z" fill="white" fill-opacity="0.85"/>
 </g>
</svg>
