<?xml version="1.0" encoding="UTF-8"?>
<!--Generator: Apple Native CoreSVG 341-->
<!DOCTYPE svg
PUBLIC "-//W3C//DTD SVG 1.1//EN"
       "http://www.w3.org/Graphics/SVG/1.1/DTD/svg11.dtd">
<svg version="1.1" xmlns="http://www.w3.org/2000/svg" xmlns:xlink="http://www.w3.org/1999/xlink" viewBox="0 0 23.0347 20.4597">
 <g>
  <rect height="20.4597" opacity="0" width="23.0347" x="0" y="0"/>
  <path d="M17.4646 13.9359L17.4646 19.6293C17.4646 20.4301 18.2263 20.6937 18.8806 20.2347L22.6502 17.5394C23.1677 17.1683 23.158 16.4164 22.6502 16.0551L18.8806 13.3207C18.1873 12.8226 17.4646 13.1156 17.4646 13.9359ZM18.8611 17.6371C19.3396 17.6371 19.74 17.2465 19.74 16.7679C19.74 16.2894 19.3396 15.889 18.8611 15.889L8.22633 15.889C4.57398 15.889 2.63062 13.9359 2.63062 10.4496L2.63062 3.64295C2.63062 3.16443 2.24 2.7738 1.76148 2.7738C1.28297 2.7738 0.882577 3.16443 0.882577 3.64295L0.882577 10.4301C0.882577 15.0492 3.45094 17.6371 8.22633 17.6371Z" fill="white" fill-opacity="0.85"/>
  <path d="M7.64039 4.38513L18.4998 4.38513C18.9685 4.38513 19.3298 4.01404 19.3298 3.54529C19.3298 3.07654 18.9685 2.71521 18.4998 2.71521L7.64039 2.71521C7.17164 2.71521 6.80055 3.07654 6.80055 3.54529C6.80055 4.01404 7.17164 4.38513 7.64039 4.38513ZM7.64039 10.2933L13.5095 10.2933C13.9783 10.2933 14.3494 9.92224 14.3494 9.45349C14.3494 8.98474 13.9783 8.62341 13.5095 8.62341L7.64039 8.62341C7.17164 8.62341 6.80055 8.98474 6.80055 9.45349C6.80055 9.92224 7.17164 10.2933 7.64039 10.2933Z" fill="white" fill-opacity="0.85"/>
 </g>
</svg>
