<?xml version="1.0" encoding="UTF-8"?>
<!--Generator: Apple Native CoreSVG 341-->
<!DOCTYPE svg
PUBLIC "-//W3C//DTD SVG 1.1//EN"
       "http://www.w3.org/Graphics/SVG/1.1/DTD/svg11.dtd">
<svg version="1.1" xmlns="http://www.w3.org/2000/svg" xmlns:xlink="http://www.w3.org/1999/xlink" viewBox="0 0 20.2832 19.9316">
 <g>
  <rect height="19.9316" opacity="0" width="20.2832" x="0" y="0"/>
  <path d="M9.96094 19.9219C15.459 19.9219 19.9219 15.459 19.9219 9.96094C19.9219 4.46289 15.459 0 9.96094 0C4.46289 0 0 4.46289 0 9.96094C0 15.459 4.46289 19.9219 9.96094 19.9219ZM9.96094 18.2617C5.37109 18.2617 1.66016 14.5508 1.66016 9.96094C1.66016 5.37109 5.37109 1.66016 9.96094 1.66016C14.5508 1.66016 18.2617 5.37109 18.2617 9.96094C18.2617 14.5508 14.5508 18.2617 9.96094 18.2617Z" fill="white" fill-opacity="0.85"/>
  <path d="M4.01367 12.1875C4.01367 12.4121 4.0918 12.5391 4.28711 12.627C4.82422 12.9004 5.12695 13.2031 5.44922 13.8477C5.54688 14.0332 5.69336 14.1211 5.88867 14.1211L14.0039 14.1211C14.209 14.1211 14.3457 14.0332 14.4434 13.8477C14.7754 13.2031 15.0781 12.9004 15.6152 12.627C15.8008 12.5391 15.8887 12.4121 15.8887 12.1875L15.8887 7.73438C15.8887 7.50977 15.8008 7.37305 15.6152 7.28516C15.0781 7.02148 14.7754 6.71875 14.4434 6.06445C14.3457 5.88867 14.209 5.79102 14.0039 5.79102L5.88867 5.79102C5.69336 5.79102 5.54688 5.88867 5.44922 6.06445C5.12695 6.71875 4.82422 7.02148 4.28711 7.28516C4.0918 7.37305 4.01367 7.50977 4.01367 7.73438ZM5.92773 12.1484L5.92773 7.77344C5.92773 7.48047 6.12305 7.28516 6.40625 7.28516L13.4961 7.28516C13.7793 7.28516 13.9648 7.48047 13.9648 7.77344L13.9648 12.1484C13.9648 12.4414 13.7793 12.6465 13.4961 12.6465L6.40625 12.6465C6.12305 12.6465 5.92773 12.4414 5.92773 12.1484ZM6.58203 8.87695L7.23633 8.87695L7.23633 7.92969L6.68945 7.92969C6.61133 7.92969 6.58203 7.96875 6.58203 8.04688ZM6.58203 10.4395L7.23633 10.4395L7.23633 9.48242L6.58203 9.48242ZM6.58203 11.8848C6.58203 11.9531 6.61133 11.9922 6.68945 11.9922L7.23633 11.9922L7.23633 11.0449L6.58203 11.0449ZM12.666 8.87695L13.3203 8.87695L13.3203 8.04688C13.3203 7.96875 13.2812 7.92969 13.2129 7.92969L12.666 7.92969ZM12.666 10.4199L13.3203 10.4199L13.3203 9.50195L12.666 9.50195ZM12.666 11.9922L13.2129 11.9922C13.2812 11.9922 13.3203 11.9531 13.3203 11.8848L13.3203 11.0449L12.666 11.0449ZM7.88086 11.9922L12.0117 11.9922L12.0117 7.92969L7.88086 7.92969Z" fill="white" fill-opacity="0.85"/>
 </g>
</svg>
