<?xml version="1.0" encoding="UTF-8"?>
<!--Generator: Apple Native CoreSVG 341-->
<!DOCTYPE svg
PUBLIC "-//W3C//DTD SVG 1.1//EN"
       "http://www.w3.org/Graphics/SVG/1.1/DTD/svg11.dtd">
<svg version="1.1" xmlns="http://www.w3.org/2000/svg" xmlns:xlink="http://www.w3.org/1999/xlink" viewBox="0 0 20.2832 19.9316">
 <g>
  <rect height="19.9316" opacity="0" width="20.2832" x="0" y="0"/>
  <path d="M19.9219 9.96094C19.9219 15.4492 15.459 19.9219 9.96094 19.9219C4.47266 19.9219 0 15.4492 0 9.96094C0 4.46289 4.47266 0 9.96094 0C15.459 0 19.9219 4.46289 19.9219 9.96094ZM5.76172 5.66406C5.56641 5.66406 5.41016 5.76172 5.3125 5.94727C4.98047 6.62109 4.66797 6.93359 4.11133 7.20703C3.90625 7.29492 3.82812 7.43164 3.82812 7.66602L3.82812 12.2559C3.82812 12.4902 3.90625 12.6172 4.11133 12.7051C4.66797 12.9883 4.98047 13.3008 5.3125 13.9648C5.41016 14.1602 5.56641 14.248 5.76172 14.248L14.1309 14.248C14.3262 14.248 14.4824 14.1602 14.5801 13.9648C14.9219 13.3008 15.2344 12.9883 15.791 12.7051C15.9863 12.6172 16.0742 12.4902 16.0742 12.2559L16.0742 7.66602C16.0742 7.43164 15.9863 7.29492 15.791 7.20703C15.2344 6.93359 14.9219 6.62109 14.5801 5.94727C14.4824 5.76172 14.3262 5.66406 14.1309 5.66406ZM14.082 7.70508L14.082 12.2168C14.082 12.5195 13.8965 12.7246 13.6035 12.7246L6.29883 12.7246C6.00586 12.7246 5.81055 12.5195 5.81055 12.2168L5.81055 7.70508C5.81055 7.40234 6.00586 7.19727 6.29883 7.19727L13.6035 7.19727C13.8965 7.19727 14.082 7.40234 14.082 7.70508ZM6.48438 11.084L6.48438 11.9434C6.48438 12.0117 6.51367 12.0508 6.5918 12.0508L7.1582 12.0508L7.1582 11.084ZM12.7441 11.084L12.7441 12.0508L13.3105 12.0508C13.3789 12.0508 13.418 12.0117 13.418 11.9434L13.418 11.084ZM7.82227 7.87109L7.82227 12.0508L12.0703 12.0508L12.0703 7.87109ZM6.48438 9.47266L6.48438 10.4492L7.1582 10.4492L7.1582 9.47266ZM12.7441 9.49219L12.7441 10.4297L13.418 10.4297L13.418 9.49219ZM6.5918 7.87109C6.51367 7.87109 6.48438 7.91016 6.48438 7.98828L6.48438 8.83789L7.1582 8.83789L7.1582 7.87109ZM12.7441 7.87109L12.7441 8.83789L13.418 8.83789L13.418 7.98828C13.418 7.91016 13.3789 7.87109 13.3105 7.87109Z" fill="white" fill-opacity="0.85"/>
 </g>
</svg>
